<mxfile host="65bd71144e">
    <diagram id="cKp5IYfl3h0SA0IxNC0s" name="第 1 页">
        <mxGraphModel dx="363" dy="1082" grid="1" gridSize="10" guides="1" tooltips="1" connect="1" arrows="1" fold="1" page="1" pageScale="1" pageWidth="827" pageHeight="1169" math="0" shadow="0">
            <root>
                <mxCell id="0"/>
                <mxCell id="1" parent="0"/>
                <mxCell id="2" value="1" style="rounded=1;whiteSpace=wrap;html=1;" parent="1" vertex="1">
                    <mxGeometry x="140" y="350" width="60" height="60" as="geometry"/>
                </mxCell>
                <mxCell id="3" value="1" style="rounded=1;whiteSpace=wrap;html=1;" parent="1" vertex="1">
                    <mxGeometry x="220" y="350" width="60" height="60" as="geometry"/>
                </mxCell>
                <mxCell id="4" value="1" style="rounded=1;whiteSpace=wrap;html=1;" parent="1" vertex="1">
                    <mxGeometry x="300" y="350" width="60" height="60" as="geometry"/>
                </mxCell>
                <mxCell id="5" value="1" style="rounded=1;whiteSpace=wrap;html=1;" parent="1" vertex="1">
                    <mxGeometry x="383.5" y="350" width="60" height="60" as="geometry"/>
                </mxCell>
            </root>
        </mxGraphModel>
    </diagram>
</mxfile>
